<svg width="24" height="25" viewBox="0 0 24 25" fill="none" xmlns="http://www.w3.org/2000/svg">
<path d="M14.53 10.1691L9.47004 15.2291C8.82004 14.5791 8.42004 13.6891 8.42004 12.6991C8.42004 10.7191 10.02 9.11914 12 9.11914C12.99 9.11914 13.88 9.51914 14.53 10.1691Z" stroke="#767F8C" stroke-width="1.5" stroke-linecap="round" stroke-linejoin="round"/>
<path d="M5.59997 18.4591C4.59997 17.5991 3.68997 16.5391 2.88997 15.2891C1.98997 13.8791 1.98997 11.5091 2.88997 10.0991C4.06997 8.2491 5.50997 6.7991 7.11997 5.8291" stroke="#767F8C" stroke-width="1.5" stroke-linecap="round" stroke-linejoin="round"/>
<path d="M17.82 6.46969C16.07 5.14969 14.07 4.42969 12 4.42969" stroke="#767F8C" stroke-width="1.5" stroke-linecap="round" stroke-linejoin="round"/>
<path d="M8.42004 20.2289C9.56004 20.7089 10.77 20.9689 12 20.9689C15.53 20.9689 18.82 18.8889 21.11 15.2889C22.01 13.8789 22.01 11.5089 21.11 10.0989C20.78 9.57891 20.42 9.08891 20.05 8.62891" stroke="#767F8C" stroke-width="1.5" stroke-linecap="round" stroke-linejoin="round"/>
<path d="M15.5099 13.3994C15.2499 14.8094 14.0999 15.9594 12.6899 16.2194" stroke="#767F8C" stroke-width="1.5" stroke-linecap="round" stroke-linejoin="round"/>
<path d="M9.47 15.2295L2 22.6995" stroke="#767F8C" stroke-width="1.5" stroke-linecap="round" stroke-linejoin="round"/>
<path d="M22 2.69922L14.53 10.1692" stroke="#767F8C" stroke-width="1.5" stroke-linecap="round" stroke-linejoin="round"/>
</svg>
