<svg width="24" height="25" viewBox="0 0 24 25" fill="none" xmlns="http://www.w3.org/2000/svg">
<path d="M9.02992 14.6991C8.63992 14.1291 8.41992 13.4391 8.41992 12.6991C8.41992 10.7191 10.0199 9.11914 11.9999 9.11914C13.9799 9.11914 15.5799 10.7191 15.5799 12.6991C15.5799 14.6791 13.9799 16.2791 11.9999 16.2791" stroke="#767F8C" stroke-width="1.5" stroke-linecap="round" stroke-linejoin="round"/>
<path d="M17.5598 6.27969C15.8698 5.07969 13.9698 4.42969 11.9998 4.42969C8.46984 4.42969 5.17984 6.50969 2.88984 10.1097C1.98984 11.5197 1.98984 13.8897 2.88984 15.2997C5.17984 18.8997 8.46984 20.9797 11.9998 20.9797C15.5298 20.9797 18.8198 18.8997 21.1098 15.2997C22.0098 13.8897 22.0098 11.5197 21.1098 10.1097" stroke="#767F8C" stroke-width="1.5" stroke-linecap="round" stroke-linejoin="round"/>
</svg>
