<svg width="25" height="25" viewBox="0 0 25 25" fill="none" xmlns="http://www.w3.org/2000/svg">
<path d="M9.10571 10.5C10.2103 10.5 11.1057 9.60457 11.1057 8.5C11.1057 7.39543 10.2103 6.5 9.10571 6.5C8.00114 6.5 7.10571 7.39543 7.10571 8.5C7.10571 9.60457 8.00114 10.5 9.10571 10.5Z" stroke="#2F5E87" stroke-width="1.5" stroke-linecap="round" stroke-linejoin="round"/>
<path d="M13.1057 2.5H9.10571C4.10571 2.5 2.10571 4.5 2.10571 9.5V15.5C2.10571 20.5 4.10571 22.5 9.10571 22.5H15.1057C20.1057 22.5 22.1057 20.5 22.1057 15.5V10.5" stroke="#2F5E87" stroke-width="1.5" stroke-linecap="round" stroke-linejoin="round"/>
<path d="M18.1057 8.5V2.5L20.1057 4.5" stroke="#2F5E87" stroke-width="1.5" stroke-linecap="round" stroke-linejoin="round"/>
<path d="M18.1057 2.5L16.1057 4.5" stroke="#2F5E87" stroke-width="1.5" stroke-linecap="round" stroke-linejoin="round"/>
<path d="M2.77576 19.4501L7.70576 16.1401C8.49576 15.6101 9.63576 15.6701 10.3458 16.2801L10.6758 16.5701C11.4558 17.2401 12.7158 17.2401 13.4958 16.5701L17.6558 13.0001C18.4358 12.3301 19.6958 12.3301 20.4758 13.0001L22.1058 14.4001" stroke="#2F5E87" stroke-width="1.5" stroke-linecap="round" stroke-linejoin="round"/>
</svg>
