<svg width="17" height="16" viewBox="0 0 17 16" fill="none" xmlns="http://www.w3.org/2000/svg">
<path d="M6.18164 12.3266V5.55328C6.18164 5.28661 6.26164 5.02661 6.40831 4.80661L8.22831 2.09994C8.51497 1.66661 9.22831 1.35994 9.83497 1.58661C10.4883 1.80661 10.9216 2.53994 10.7816 3.19328L10.435 5.37328C10.4083 5.57328 10.4616 5.75328 10.575 5.89328C10.6883 6.01994 10.855 6.09994 11.035 6.09994H13.775C14.3016 6.09994 14.755 6.31328 15.0216 6.68661C15.275 7.04661 15.3216 7.51328 15.155 7.98661L13.515 12.9799C13.3083 13.8066 12.4083 14.4799 11.515 14.4799H8.91497C8.46831 14.4799 7.84164 14.3266 7.55497 14.0399L6.70164 13.3799C6.37497 13.1333 6.18164 12.7399 6.18164 12.3266Z" fill="#F4D62D"/>
<path d="M4.06188 4.2533H3.37521C2.34187 4.2533 1.92188 4.6533 1.92188 5.63996V12.3466C1.92188 13.3333 2.34187 13.7333 3.37521 13.7333H4.06188C5.09521 13.7333 5.51521 13.3333 5.51521 12.3466V5.63996C5.51521 4.6533 5.09521 4.2533 4.06188 4.2533Z" fill="#F4D62D"/>
</svg>
