<svg width="43" height="42" viewBox="0 0 43 42" fill="none" xmlns="http://www.w3.org/2000/svg">
<circle cx="21.5884" cy="21" r="21" fill="white"/>
<rect width="20" height="20" transform="translate(11.5884 11)" fill="white"/>
<path d="M21.5883 22.1917C23.0242 22.1917 24.1883 21.0276 24.1883 19.5917C24.1883 18.1558 23.0242 16.9917 21.5883 16.9917C20.1523 16.9917 18.9883 18.1558 18.9883 19.5917C18.9883 21.0276 20.1523 22.1917 21.5883 22.1917Z" stroke="#163652"/>
<path d="M14.6051 18.075C16.2468 10.8583 26.9385 10.8666 28.5718 18.0833C29.5301 22.3166 26.8968 25.9 24.5885 28.1166C22.9135 29.7333 20.2635 29.7333 18.5801 28.1166C16.2801 25.9 13.6468 22.3083 14.6051 18.075Z" stroke="#163652"/>
</svg>
