<svg width="20" height="21" viewBox="0 0 20 21" fill="none" xmlns="http://www.w3.org/2000/svg">
<path d="M9.99984 11.3334C10.4601 11.3334 10.8332 10.9603 10.8332 10.5C10.8332 10.0398 10.4601 9.66671 9.99984 9.66671C9.5396 9.66671 9.1665 10.0398 9.1665 10.5C9.1665 10.9603 9.5396 11.3334 9.99984 11.3334Z" stroke="#515C6D" stroke-width="1.66667" stroke-linecap="round" stroke-linejoin="round"/>
<path d="M9.99984 5.50004C10.4601 5.50004 10.8332 5.12694 10.8332 4.66671C10.8332 4.20647 10.4601 3.83337 9.99984 3.83337C9.5396 3.83337 9.1665 4.20647 9.1665 4.66671C9.1665 5.12694 9.5396 5.50004 9.99984 5.50004Z" stroke="#515C6D" stroke-width="1.66667" stroke-linecap="round" stroke-linejoin="round"/>
<path d="M9.99984 17.1667C10.4601 17.1667 10.8332 16.7936 10.8332 16.3334C10.8332 15.8731 10.4601 15.5 9.99984 15.5C9.5396 15.5 9.1665 15.8731 9.1665 16.3334C9.1665 16.7936 9.5396 17.1667 9.99984 17.1667Z" stroke="#515C6D" stroke-width="1.66667" stroke-linecap="round" stroke-linejoin="round"/>
</svg>
