<svg width="13" height="13" viewBox="0 0 13 13" fill="none" xmlns="http://www.w3.org/2000/svg">
<path d="M6.27051 1.5C3.51551 1.5 1.27051 3.745 1.27051 6.5C1.27051 9.255 3.51551 11.5 6.27051 11.5C9.02551 11.5 11.2705 9.255 11.2705 6.5C11.2705 3.745 9.02551 1.5 6.27051 1.5ZM8.66051 5.35L5.82551 8.185C5.75551 8.255 5.66051 8.295 5.56051 8.295C5.46051 8.295 5.36551 8.255 5.29551 8.185L3.88051 6.77C3.73551 6.625 3.73551 6.385 3.88051 6.24C4.02551 6.095 4.26551 6.095 4.41051 6.24L5.56051 7.39L8.13051 4.82C8.27551 4.675 8.51551 4.675 8.66051 4.82C8.80551 4.965 8.80551 5.2 8.66051 5.35Z" fill="#027A48"/>
</svg>
