<svg width="27" height="26" viewBox="0 0 27 26" fill="none" xmlns="http://www.w3.org/2000/svg">
<path d="M8.02984 20.2645C7.83181 20.2547 7.67225 20.2391 7.46849 20.1909C7.26473 20.1426 7.10516 20.127 6.93987 20.073C6.57081 19.9707 6.23449 19.8243 5.89244 19.6393C5.21407 19.3079 4.62817 18.8055 4.14046 18.1705C3.65848 17.574 3.31315 16.8391 3.16585 16.1141C3.07011 15.7352 3.05702 15.3834 3.0382 14.993C3.04801 14.795 3.06356 14.6354 3.07338 14.4374C3.0832 14.2394 3.13721 14.0741 3.14702 13.8761L3.26568 14.4088C3.29432 14.6011 3.35569 14.7492 3.4228 14.9358C3.51281 15.2762 3.64128 15.6109 3.76403 15.9071C4.01525 16.538 4.33766 17.119 4.76973 17.6443C5.20179 18.1697 5.66659 18.6508 6.24104 19.0763C6.50617 19.2727 6.80976 19.4634 7.11335 19.6541C7.24591 19.7523 7.41694 19.8447 7.58796 19.9372L8.02984 20.2645ZM8.12068 21.6662C8.01676 21.7604 7.86864 21.8217 7.72053 21.8831C7.57242 21.9445 7.46277 22.0001 7.30893 22.023C7.04544 22.1016 6.74349 22.1859 6.43008 22.1932C5.84745 22.2407 5.20917 22.1785 4.6691 21.9838C4.09056 21.7947 3.56603 21.4404 3.18388 20.9863C2.99567 20.7784 2.80173 20.5321 2.64625 20.2801C2.59061 20.1704 2.52923 20.0223 2.46786 19.8742C2.45068 19.7588 2.39503 19.6492 2.37212 19.4953C2.50468 19.5935 2.59879 19.6974 2.68717 19.7629C2.81973 19.8611 2.91384 19.965 3.00221 20.0305C3.22315 20.1942 3.40563 20.3635 3.62085 20.4887C4.057 20.7776 4.48743 21.028 4.98332 21.19C5.44075 21.3578 5.96937 21.4756 6.4538 21.5607C6.69602 21.6032 6.97097 21.6016 7.25165 21.6384C7.37276 21.6597 7.5266 21.6368 7.6477 21.6581C7.84573 21.6679 7.96111 21.6507 8.12068 21.6662ZM14.0287 1.68008C14.2267 1.6899 14.392 1.74391 14.5958 1.79219C14.7996 1.84047 14.9648 1.89447 15.1301 1.94848C15.5049 2.08923 15.8413 2.2357 16.1833 2.42063C16.8674 2.7905 17.459 3.3314 17.9083 3.97212C18.3575 4.61285 18.6644 5.35341 18.7732 6.08415C18.8305 6.46875 18.8436 6.82062 18.824 7.21667C18.8142 7.4147 18.7986 7.57427 18.7503 7.77803C18.702 7.98178 18.6865 8.14135 18.6325 8.30665L18.5138 7.77394C18.4852 7.58164 18.4623 7.4278 18.3952 7.24123L18.1251 6.21999C17.9124 5.58335 17.5842 4.9639 17.1849 4.39437C16.7856 3.82483 16.3208 3.34367 15.7848 2.91243C15.5139 2.67758 15.2103 2.48692 14.9395 2.25207C14.8069 2.15387 14.6359 2.06141 14.4649 1.96894L14.0287 1.68008ZM17.3518 1.02788C17.5114 1.04343 17.6325 1.06471 17.7593 1.12444C17.8804 1.14572 18.0457 1.19972 18.1726 1.25946C18.4263 1.37893 18.6799 1.4984 18.9393 1.65633C19.4197 1.97792 19.8346 2.38789 20.107 2.89769C20.418 3.40176 20.5808 3.9672 20.5899 4.55556C20.5915 4.83051 20.5547 5.11118 20.5178 5.39186C20.4966 5.51297 20.4426 5.67826 20.4213 5.79937C20.3616 5.92621 20.3403 6.04732 20.2421 6.17988L20.1848 5.79528L20.1275 5.41068C20.0874 5.14146 20.0146 4.91643 19.9802 4.68567C19.8288 4.19715 19.6832 3.74708 19.4279 3.35266C19.1668 2.91978 18.8788 2.56955 18.5465 2.18659C18.3641 2.0172 18.1759 1.80936 17.9934 1.63997C17.8993 1.53604 17.8109 1.47058 17.6783 1.37239C17.5728 1.19154 17.4402 1.09335 17.3518 1.02788Z" fill="#42ADE2"/>
<path d="M3.93632 8.88381C3.21867 9.34452 3.08693 10.3077 3.54763 11.0253L9.90013 20.4185L12.4033 18.7484L6.04508 9.31668C5.58437 8.59904 4.64823 8.38465 3.93632 8.88381ZM17.8638 15.0259L20.5093 13.2559L13.2526 2.54277C12.7535 1.83085 11.7789 1.62219 11.0285 2.12708C10.3166 2.62625 10.1079 3.60085 10.6128 4.35122L17.8638 15.0259Z" fill="#FFDD67"/>
<path d="M11.0613 2.08271C10.9901 2.13263 10.9189 2.18254 10.8534 2.27092C11.5555 1.96978 12.3763 2.20136 12.8255 2.84208L20.0823 13.5552L20.5479 13.25L13.2912 2.53686C12.7863 1.78648 11.8117 1.57782 11.0613 2.08271Z" fill="#EBA352"/>
<path d="M12.3977 18.709L15.1472 16.8449L7.74069 5.91814C7.2358 5.16776 6.17855 4.93209 5.42817 5.43699C4.6778 5.94188 4.48059 6.9934 4.98548 7.74377L12.3977 18.709Z" fill="#FFDD67"/>
<path d="M5.43373 5.47545C5.36254 5.52537 5.29134 5.57529 5.22588 5.66366C5.92798 5.36253 6.82566 5.58265 7.28063 6.26183L11.8746 13.0864L12.7952 13.4604L7.74624 5.9566C7.23562 5.16777 6.22257 4.96483 5.43373 5.47545Z" fill="#EBA352"/>
<path d="M14.5483 15.9911L17.2978 14.127L9.89132 3.20026C9.38643 2.44988 8.32919 2.21421 7.58454 2.75757C6.83416 3.26246 6.63695 4.31397 7.14185 5.06435L14.5483 15.9911Z" fill="#FFDD67"/>
<path d="M7.57869 2.71918C7.50749 2.7691 7.44203 2.85747 7.37084 2.90739C8.07294 2.60625 8.97061 2.82637 9.42559 3.50556L14.6243 11.2229L15.5449 11.5969L9.8912 3.20033C9.38058 2.41149 8.32907 2.21428 7.57869 2.71918ZM3.93646 8.88344C3.86527 8.93336 3.79408 8.98327 3.72862 9.07165C4.39226 8.77624 5.17455 9.01355 5.58534 9.66L9.36918 15.2686L10.2898 15.6426L6.05095 9.35477C5.58452 8.59867 4.64838 8.38428 3.93646 8.88344Z" fill="#EBA352"/>
<path d="M23.3026 4.82005C22.1439 4.16705 20.5834 5.30368 20.1497 8.19882C19.8592 10.2077 19.8682 10.7961 18.7234 11.5563L17.8192 10.2364C17.8192 10.2364 7.6813 17.1322 8.23038 17.9154C8.23038 17.9154 10.1452 21.7974 12.6566 23.3497C16.388 25.7031 23.666 21.5134 22.918 14.1159C22.4745 9.81822 24.5497 5.53851 23.3026 4.82005Z" fill="#FFDD67"/>
<path d="M23.3026 4.81918C23.0874 4.69398 22.8452 4.65143 22.6087 4.64734C22.6529 4.68007 22.7298 4.66862 22.774 4.70135C24.0595 5.41408 23.1709 7.63004 22.792 9.5735C22.4712 11.1152 22.2331 12.6839 22.5277 14.1339C23.7863 20.4724 17.816 24.4674 13.7981 23.8864C17.8021 24.9019 24.355 20.8595 23.0563 14.2517C22.7617 12.8017 22.9728 11.3157 23.3206 9.69133C23.661 7.7536 24.5497 5.53764 23.3026 4.81918Z" fill="#EBA352"/>
<path d="M19.0466 11.3504C16.7022 11.9748 13.7121 15.919 16.7292 19.283C14.3602 15.7832 16.9436 12.8037 18.6964 11.6385C18.8658 11.456 19.0466 11.3504 19.0466 11.3504Z" fill="#EBA352"/>
</svg>
