<svg width="162" height="84" viewBox="0 0 162 84" fill="none" xmlns="http://www.w3.org/2000/svg">
<path d="M49.3022 79.7998V7.65869H59.739L59.8822 31.2696L66.7582 31.4332L66.8196 10.3571H76.4787L75.6397 67.6775H66.9424L66.5331 40.7344L58.8386 41.082L57.2628 79.7998H49.3022Z" fill="#2F5E87"/>
<path d="M85.6966 83.913C85.6558 83.9742 85.5945 83.9742 85.5333 83.913C84.2063 82.096 81.2257 82.5248 78.5922 83.2801C78.5922 83.2801 72.7332 85.2603 70.7121 82.4635C70.7121 82.4635 69.283 80.7691 70.9979 77.4415C70.4875 77.2169 69.9567 76.9515 69.3851 76.7065C68.4256 78.2785 65.098 83.2393 62.0358 82.5043C62.0358 82.5043 60.8313 82.2594 60.5455 80.7078C60.3822 79.8708 60.423 78.8297 61.1375 77.3598C61.1375 77.3598 62.4645 74.4813 65.6288 74.8079C66.5066 74.8896 67.4865 75.1754 68.446 75.4816C69.0993 74.3792 70.8346 71.1537 69.5076 70.6433C69.426 70.6433 69.4055 70.5004 69.4668 70.48C69.6913 70.3167 70.0996 70.1329 70.5488 70.4392C71.4062 71.072 71.1612 73.5422 69.8547 75.9308C70.4467 76.1145 71.0387 76.3186 71.5899 76.4411C71.7328 76.237 71.8757 76.0328 72.0186 75.8083C72.0186 75.8083 75.3054 71.4803 75.2238 70.3575C75.2238 70.2758 75.3667 70.2963 75.4279 70.3167C76.1833 70.5617 76.4895 71.4395 76.0404 72.4806C75.6321 73.5014 74.2439 75.1958 73.3048 76.584C73.5293 76.584 73.7335 76.5228 73.9376 76.4615C73.9785 76.4615 74.0193 76.4615 74.0397 76.5228C74.101 76.9107 74.2643 78.2989 73.2435 78.1968C72.9781 78.1968 72.6923 78.1151 72.3657 77.9927C71.6103 79.2584 70.7529 81.0345 71.2633 81.8715C72.8556 84.0763 77.8777 82.1573 77.8777 82.1573C79.3884 81.6469 81.4095 80.8303 83.6551 80.9324C87.2889 81.0957 86.0436 83.3822 85.6966 83.8925V83.913ZM68.0173 76.1553C67.1599 75.8695 66.3229 75.6858 65.5471 75.7266C63.4852 75.8287 62.4645 77.9722 62.4645 77.9722C62.4645 77.9722 61.9745 78.8093 61.7704 79.8096C61.5867 80.7078 61.4846 81.6265 62.2195 81.8715C62.8524 82.0756 65.5063 80.177 68.0377 76.1553H68.0173Z" fill="#2F5E87"/>
<path d="M80.2252 76.8289C79.8169 77.6455 79.3474 78.2988 78.8983 78.85C78.2858 79.6053 77.6734 80.0136 77.1018 80.2178C76.2443 80.5036 75.5706 80.3402 75.5706 80.3402C73.4067 79.789 75.0603 76.6656 75.0603 76.6656C76.2647 74.3791 78.1633 73.5013 78.9187 73.8279C79.5515 74.0729 79.429 74.9915 79.429 74.9915C79.429 74.9915 79.3678 77.0126 76.4893 77.2168C76.3056 77.5026 76.1423 77.8496 76.0402 78.1967C75.8564 78.707 75.8564 79.197 76.2035 79.3807C76.5505 79.5645 76.9588 79.5032 77.3263 79.3399C77.9592 79.0541 78.5104 78.4417 78.5104 78.4417C79.0412 77.87 79.5924 77.0943 79.7557 76.8493C79.7965 76.7881 79.8373 76.7676 79.8986 76.7676H80.1844C80.2252 76.7676 80.2456 76.8085 80.2252 76.8493V76.8289ZM76.9997 76.4002C77.3467 76.4002 77.7346 76.3185 77.9388 76.196C79.1228 75.5428 78.8983 75.012 78.8983 75.012C78.7554 74.6853 78.1021 74.8691 76.9997 76.4002Z" fill="#2F5E87"/>
<path d="M80.8584 79.3403C81.4913 79.3403 83.1449 77.258 83.4307 76.8497C83.4715 76.7884 83.5123 76.768 83.5736 76.768H83.8594C83.9002 76.768 83.9002 76.8293 83.9002 76.8497C82.8182 79.0136 81.083 80.3814 80.0622 80.5039C79.6539 80.5652 79.3273 80.5039 79.0619 80.3202C78.6332 80.014 78.6944 79.3811 78.6944 79.3811C78.7353 78.7482 79.0211 78.0541 79.4906 77.2784C80.1643 76.1556 81.2055 74.6653 81.2055 74.6653C82.6345 72.6238 83.2878 70.9498 83.349 70.5211C83.349 70.419 83.4715 70.3373 83.5736 70.3782C85.6151 71.3989 84.1044 73.5016 83.6144 74.1549C83.6144 74.1549 82.7162 75.2981 82.0016 76.2168C81.2463 77.1763 80.7155 77.85 80.3889 78.5441C79.9806 79.4832 80.8992 79.3403 80.8992 79.3403H80.8584Z" fill="#2F5E87"/>
<path d="M88.0441 77.8907C87.0846 79.6872 85.9413 80.1364 85.2064 79.9935C85.2064 79.9935 84.5735 79.9118 84.349 79.4014C84.349 79.4014 83.9203 78.6461 84.594 77.8295C84.7164 77.6662 84.8798 77.5233 85.0431 77.4212C85.0431 77.4212 85.9822 76.7883 86.3496 77.8907C86.3496 77.9316 86.3496 77.952 86.2884 77.952C86.1047 77.952 85.6147 77.952 85.2064 78.2786C84.7981 78.6053 84.7164 78.9319 84.8389 79.1156C84.9002 79.1973 85.0227 79.1769 85.0227 79.1769C86.268 79.034 88.4319 75.0939 87.3704 74.9714C86.3905 74.8898 85.1247 76.625 84.7777 77.1354C83.6549 78.8911 82.2054 80.9325 82.777 82.8311C82.777 82.872 82.777 82.9332 82.7158 82.9128C82.3279 82.9128 81.0214 82.6882 81.4501 80.5855C81.9196 78.3399 84.5123 76.1146 84.2877 73.9302C84.2877 73.869 84.349 73.7874 84.4306 73.7874C84.9002 73.8282 86.1455 74.0119 85.9005 74.951C85.9005 74.9918 85.8597 75.0735 85.8393 75.1143C86.4313 74.5019 87.1458 74.0323 87.7991 74.1344C87.7991 74.1344 89.861 74.3998 88.0032 77.8907H88.0441Z" fill="#2F5E87"/>
<path d="M98.1703 76.1759C98.0478 76.2371 97.8845 76.2576 97.762 76.278C98.0478 77.1762 97.2516 78.6461 97.2516 78.6461C96.7821 79.5035 96.2717 79.8914 95.8226 80.0751C95.1693 80.3609 94.414 80.218 94.414 80.218C92.1275 79.626 93.4749 76.6659 93.4749 76.6659C94.4752 74.4202 96.0472 73.5628 97.0271 73.869C97.7824 74.114 97.5987 75.0123 97.5987 75.0123C97.5987 75.0123 97.5579 75.2981 97.4354 75.5839C97.5987 75.543 97.7824 75.4206 97.9253 75.1756C97.9253 75.1756 97.9662 75.1347 98.007 75.1756C98.0886 75.2368 98.2928 75.3797 98.354 75.6247C98.4153 75.8901 98.354 76.0738 98.1703 76.1555V76.1759ZM96.5371 76.1147C96.2513 76.0738 96.0267 76.0738 95.9451 76.1555H95.9043C95.8634 76.0738 95.843 75.9309 95.9043 75.7472C95.9655 75.5839 96.1697 75.4614 96.5371 75.5226C96.6188 75.5226 96.7208 75.5635 96.8229 75.5839H96.9862C97.3945 74.7673 96.6392 74.2365 95.2918 76.4413C95.2918 76.4413 94.7406 77.2987 94.5365 78.1153C94.3936 78.6257 94.2507 79.4423 94.6998 79.5852C94.6998 79.5852 95.7818 79.9935 96.5984 78.1153C97.0883 76.9925 96.8433 76.38 96.5371 76.0738V76.1147Z" fill="#2F5E87"/>
<path d="M105.213 76.8287C104.131 78.9927 102.62 80.2788 101.763 80.238C100.783 80.1972 100.579 79.2581 100.844 78.4211C101.109 77.5637 101.599 76.8696 101.599 76.8696C101.824 76.5225 101.967 76.3388 102.13 76.0734C102.6 75.3589 102.293 75.4201 102.293 75.4201C101.824 75.4609 100.926 76.6858 100.293 77.7678C99.8233 78.5436 99.4558 79.3193 99.2517 79.7685C99.0884 80.0951 98.8434 80.1564 98.6188 80.1359C98.4759 80.1359 98.3738 80.0951 98.2718 80.0135C97.8839 79.7276 97.5981 79.1152 98.0472 77.8699C98.2105 77.4208 98.3943 77.0533 98.7413 76.5021C98.7413 76.5021 100.13 74.3994 100.252 73.8073C100.252 73.7665 100.313 73.7461 100.334 73.7461C100.497 73.7869 100.824 73.9094 101.007 74.2973C101.007 74.2973 101.354 74.971 100.783 75.8284C100.783 75.8284 100.293 76.5633 99.9254 77.2166C99.7008 77.6249 99.4762 78.0944 99.3129 78.4619C99.7212 77.7474 100.293 76.8287 100.885 76.0326C100.885 76.0326 102.783 73.297 103.927 74.3177C104.6 74.9302 104.09 75.9101 103.641 76.5225C103.641 76.5225 103.11 77.2574 102.661 77.972C102.334 78.5028 102.171 79.0131 102.6 79.054C103.212 79.1152 104.498 77.2166 104.764 76.8083C104.805 76.7471 104.845 76.7267 104.927 76.7267H105.192C105.233 76.7267 105.254 76.7879 105.254 76.8083L105.213 76.8287Z" fill="#2F5E87"/>
<path d="M127.383 83.9741C124.648 84.1782 122.055 83.1166 120.687 82.545C120.687 82.545 119.605 82.0755 118.503 81.6059C116.706 83.3616 114.501 84.1986 112.582 83.9128C112.582 83.9128 109.908 83.5453 110.378 81.3201C110.378 81.3201 110.663 79.6869 112.562 79.442C113.46 77.3188 116.359 74.7874 116.298 72.7459C116.298 72.6846 116.359 72.603 116.441 72.6234C116.89 72.6642 118.135 72.8684 117.829 73.8075C117.38 75.1957 115.338 77.3597 114.297 79.5032C115.195 79.6053 116.094 79.8298 116.972 80.1565C117.217 80.2381 117.462 80.3198 117.706 80.4219C118.217 79.7686 118.707 78.952 119.136 77.9925C120.544 74.9303 120.258 72.9092 119.217 71.9293C118.237 70.9698 116.42 71.2964 116.42 71.2964C114.216 71.521 112.827 73.5012 112.827 73.5012C111.786 74.9507 111.888 76.1552 111.97 76.5839C111.97 76.6655 111.929 76.7472 111.827 76.7268C109.541 75.9306 111.194 72.9909 111.194 72.9909C113.236 69.4591 117.155 70.2349 117.155 70.2349C117.155 70.2349 118.625 70.4186 119.85 71.3985C121.218 72.4805 122.3 74.5424 120.83 78.0946C120.401 79.1766 119.809 80.1157 119.115 80.9322C119.748 81.1364 120.36 81.3405 120.912 81.463C123.77 82.2592 127.649 83.137 129.139 80.9527C129.18 80.9118 129.241 80.9118 129.302 80.9527C129.649 81.4834 130.956 83.7087 127.363 83.9741H127.383ZM117.135 81.0343C116.972 80.9731 116.808 80.8914 116.686 80.8506C115.93 80.6056 115.134 80.3198 113.95 80.2381C113.664 80.9935 113.542 81.6876 113.705 82.3613C113.705 82.4021 113.705 82.4634 113.644 82.4634C113.297 82.4225 112.092 82.0346 112.297 80.4627C111.582 80.8506 111.439 81.5651 111.439 81.5651C111.051 83.1166 112.725 83.2187 112.725 83.2187C113.869 83.3004 115.583 82.7288 117.176 81.0343H117.135Z" fill="#2F5E87"/>
<path d="M127.362 76.8289C126.954 77.6455 126.485 78.2988 126.035 78.85C125.423 79.6053 124.811 80.0136 124.239 80.2178C123.382 80.5036 122.708 80.3402 122.708 80.3402C120.544 79.789 122.197 76.6656 122.197 76.6656C123.402 74.3791 125.301 73.5013 126.056 73.8279C126.689 74.0729 126.566 74.9915 126.566 74.9915C126.566 74.9915 126.505 77.0126 123.647 77.2168C123.484 77.5026 123.3 77.8496 123.198 78.1967C123.034 78.707 123.014 79.197 123.361 79.3807C123.708 79.5645 124.116 79.5032 124.484 79.3399C125.117 79.0541 125.668 78.4417 125.668 78.4417C126.199 77.87 126.75 77.0943 126.913 76.8493C126.954 76.7881 126.995 76.7676 127.056 76.7676H127.342C127.362 76.7676 127.403 76.8085 127.362 76.8493V76.8289ZM124.137 76.4002C124.484 76.4002 124.872 76.3185 125.076 76.196C126.26 75.5428 126.035 75.012 126.035 75.012C125.893 74.6853 125.239 74.8691 124.137 76.4002Z" fill="#2F5E87"/>
<path d="M136.571 76.8288C135.489 78.9928 133.978 80.2789 133.12 80.2381C132.141 80.1973 131.916 79.2582 132.181 78.4212C132.467 77.5638 132.937 76.8697 132.937 76.8697C132.937 76.8697 133.059 76.7063 133.488 76.0735C134.264 74.9302 133.692 74.9915 133.692 74.9915C133.08 74.9915 132.386 75.9102 131.753 76.7676C130.364 78.7478 130.467 79.544 130.609 79.8298C130.65 79.8911 130.609 79.9727 130.548 79.9931C127.751 80.2177 129.752 77.1759 129.752 77.1759C129.915 76.8901 130.262 76.3389 130.426 76.0939C130.916 75.3794 130.589 75.4406 130.589 75.4406C130.119 75.4815 129.242 76.7063 128.588 77.7883C128.139 78.5641 127.772 79.3399 127.568 79.789C127.404 80.1156 127.159 80.1769 126.935 80.1564C126.792 80.1564 126.669 80.1156 126.588 80.034C126.2 79.7482 125.914 79.1357 126.343 77.8904C126.506 77.4413 126.69 77.0738 127.057 76.5226C127.057 76.5226 128.445 74.4199 128.548 73.8278C128.548 73.787 128.588 73.7666 128.65 73.7666C128.813 73.8074 129.14 73.9299 129.323 74.3178C129.323 74.3178 129.67 74.9915 129.099 75.8489C129.099 75.8489 128.588 76.5838 128.241 77.2371C128.078 77.5433 127.894 77.8904 127.751 78.217C128.139 77.5433 128.65 76.7472 129.18 76.0122C129.18 76.0122 131.079 73.3175 132.243 74.3382C132.488 74.5424 132.569 74.8282 132.569 75.0936C134.468 73.2971 135.223 74.4607 135.223 74.4607C135.223 74.4607 135.815 75.1956 134.958 76.543C134.958 76.543 134.672 76.9921 134.1 77.7883C133.243 79.0336 133.937 79.0949 133.937 79.0949C134.57 79.0949 135.836 77.2575 136.121 76.8492C136.162 76.788 136.203 76.7676 136.264 76.7676H136.55C136.591 76.7676 136.632 76.8288 136.611 76.8697L136.571 76.8288Z" fill="#2F5E87"/>
<path d="M142.553 76.8285C141.471 78.9925 139.96 80.2378 139.102 80.2378C138.245 80.2378 138.347 78.9108 138.368 78.6862C137.898 79.3803 137.163 80.1357 136.285 79.9519C134.591 79.5436 136.122 76.6856 136.122 76.6856C137.326 74.3991 139.266 73.5213 139.98 73.8479C140.409 74.0317 140.491 74.3991 140.511 74.6849C140.674 74.5216 140.797 74.3991 140.879 74.297C140.94 74.2154 141.062 74.1541 141.164 74.1541H142.471C142.532 74.1541 142.573 74.2358 142.532 74.2766C142.124 74.6849 140.695 76.1956 140.042 77.7267C139.449 79.0945 139.899 79.0945 139.899 79.0945C140.531 79.0945 141.797 77.2572 142.083 76.8489C142.124 76.7877 142.165 76.7672 142.246 76.7672H142.512C142.553 76.7672 142.573 76.8285 142.573 76.8489L142.553 76.8285ZM139.694 75.9098C139.858 75.6036 139.919 75.3994 139.96 75.3178C140.123 74.6645 139.388 74.4604 138.02 76.4814C136.428 78.8087 136.959 78.972 136.959 78.972C137.367 79.0333 137.837 78.5637 138.204 78.0942C138.306 77.9513 138.408 77.8084 138.51 77.6859C139 77.0326 139.47 76.3181 139.694 75.9302V75.9098Z" fill="#2F5E87"/>
<path d="M148.758 76.8287C147.676 78.9927 146.166 80.2788 145.308 80.238C144.328 80.1972 144.124 79.2581 144.389 78.4211C144.655 77.5637 145.145 76.8696 145.145 76.8696C145.369 76.5225 145.512 76.3388 145.676 76.0734C146.145 75.3589 145.839 75.4201 145.839 75.4201C145.369 75.4609 144.471 76.6858 143.838 77.7678C143.369 78.5436 143.001 79.3193 142.797 79.7685C142.634 80.0951 142.389 80.1564 142.164 80.1359C142.021 80.1359 141.919 80.0951 141.817 80.0135C141.429 79.7276 141.143 79.1152 141.593 77.8699C141.756 77.4208 141.94 77.0533 142.287 76.5021C142.287 76.5021 143.675 74.3994 143.797 73.8073C143.797 73.7665 143.859 73.7461 143.879 73.7461C144.042 73.7869 144.369 73.9094 144.553 74.2973C144.553 74.2973 144.9 74.971 144.328 75.8284C144.328 75.8284 143.838 76.5633 143.471 77.2166C143.246 77.6249 143.022 78.0944 142.858 78.4619C143.267 77.7474 143.838 76.8287 144.43 76.0326C144.43 76.0326 146.329 73.297 147.472 74.3177C148.146 74.9302 147.635 75.9101 147.186 76.5225C147.186 76.5225 146.656 77.2574 146.206 77.972C145.88 78.5028 145.716 79.0131 146.145 79.054C146.758 79.1152 148.044 77.2166 148.309 76.8083C148.35 76.7471 148.391 76.7267 148.472 76.7267H148.738C148.779 76.7267 148.799 76.7879 148.799 76.8083L148.758 76.8287Z" fill="#2F5E87"/>
<path d="M156.679 71.8273C156.679 71.8273 156.352 72.6643 154.739 74.2362C154.739 74.2362 152.8 76.2165 152.208 77.7272C151.677 79.1154 152.085 79.095 152.085 79.095C152.718 79.095 153.984 77.2576 154.27 76.8494C154.311 76.7881 154.352 76.7677 154.413 76.7677H154.699C154.739 76.7677 154.739 76.8289 154.739 76.8494C153.657 79.0133 152.167 80.2586 151.31 80.2586C150.452 80.2586 150.554 78.9317 150.575 78.7071C150.105 79.4012 149.35 80.1566 148.492 79.9728C146.778 79.5645 148.329 76.7064 148.329 76.7064C149.534 74.42 151.453 73.5421 152.188 73.8688C152.596 74.0321 152.698 74.3791 152.698 74.6445C152.984 74.2975 153.208 74.0933 153.208 74.0933C155.189 71.7456 155.331 70.827 155.291 70.5616C155.291 70.5003 155.331 70.4595 155.372 70.4799C155.985 70.5412 157.128 70.7657 156.699 71.8681L156.679 71.8273ZM152.106 75.3182C152.269 74.665 151.555 74.4608 150.166 76.4819C148.574 78.8092 149.125 78.9725 149.125 78.9725C149.534 79.0337 150.003 78.5642 150.371 78.0947C150.473 77.9517 150.575 77.8088 150.677 77.6864C151.167 77.0331 151.636 76.3186 151.841 75.9307C152.024 75.6245 152.085 75.4203 152.106 75.3386V75.3182Z" fill="#2F5E87"/>
<path d="M85.8668 48.6706H78.4551V17.5413H85.8668V48.6706Z" fill="#2F5E87"/>
<path d="M94.9133 48.6704H87.8438V17.3762H94.9133V48.6704ZM109.114 34.6384C109.667 35.2145 110.2 36.0169 110.692 37.1074C110.917 37.3337 111.102 38.2596 111.266 39.885L111.491 40.996C111.983 43.9588 112.393 45.8311 112.7 46.6129C112.905 47.2096 113.335 47.8885 114.032 48.6704H106.635C106.327 48.6498 105.897 47.7445 105.303 45.9751C105.18 45.7488 104.811 43.6913 104.196 39.7615C103.93 38.8357 103.335 38.095 102.413 37.5395C101.553 37.2308 99.4215 37.0868 96.0404 37.0868V31.4288H101.696C103.909 30.6469 105.016 29.1861 105.016 27.0258V26.4908C104.524 24.1453 103.192 22.952 101.02 22.8491H96.0404V17.2939H101.02C105.2 17.2939 108.233 18.4256 110.098 20.7093C111.43 22.6639 112.085 24.7008 112.085 26.82V27.2315C112.085 29.6799 111.389 31.8197 109.975 33.6508C109.708 34.0006 109.421 34.3092 109.093 34.6179L109.114 34.6384Z" fill="#2F5E87"/>
<path d="M123.092 48.6706H116.008V17.5413H123.092V48.6706ZM138.923 17.6231V23.3333H124.324V17.6231H138.923ZM137.773 29.3708V35.081H124.365V29.3708H137.773ZM138.985 42.9196V48.6297H124.386V42.9196H138.985Z" fill="#2F5E87"/>
<path d="M87.4505 50.9836L93.33 67.6217H89.0429L87.9201 64.09H83.3063L84.2046 61.0073H87.0422V60.9461L85.3274 54.8216H85.2661L81.6731 67.6217H78.3047V65.2128L83.143 50.9836H87.4505Z" fill="#2F5E87"/>
<path d="M101.945 67.6218H98.168V50.9429H101.945V67.6218ZM106.109 50.9633C108.784 50.9633 110.478 51.9228 111.172 53.8214C111.336 54.2092 111.417 54.638 111.417 55.1279V55.4137C111.417 56.4549 110.907 57.4144 109.886 58.2718L109.355 58.578L109.069 58.6801C109.376 58.8434 109.621 58.9659 109.804 59.068C110.988 59.7825 111.642 60.8237 111.805 62.2119C111.846 62.3752 111.866 62.5589 111.866 62.7631C111.805 63.743 111.703 64.335 111.581 64.4779C111.499 64.8862 111.233 65.3966 110.764 65.9682C110.213 66.7644 109.192 67.3156 107.743 67.6422C107.355 67.6626 106.783 67.683 106.048 67.683H102.578V64.6616H106.048C107.314 64.335 107.967 63.7226 107.988 62.8243V62.3343C108.049 61.7219 107.783 61.2319 107.171 60.8441C107.048 60.6399 106.681 60.5378 106.048 60.4766H102.578V57.3327H106.048L106.62 57.2919C107.334 56.9857 107.681 56.4345 107.681 55.6383L107.62 55.23L107.498 54.9442C107.15 54.495 106.661 54.2297 106.028 54.1684H102.516V51.0041H106.069L106.109 50.9633Z" fill="#2F5E87"/>
<path d="M118.072 67.6218H114.295V50.9429H118.072V67.6218Z" fill="#2F5E87"/>
<path d="M126.851 54.0255C125.891 54.148 125.054 54.6584 124.34 55.5566C123.523 56.5978 123.115 57.8431 123.115 59.313C123.115 60.7828 123.523 62.0281 124.34 63.0693C125.054 63.988 125.891 64.4983 126.851 64.6208V67.6422C124.809 67.5605 123.033 66.744 121.563 65.2128C120.012 63.5797 119.236 61.6198 119.236 59.313C119.236 57.0061 120.012 55.0462 121.563 53.4131C123.033 51.8819 124.789 51.0654 126.851 50.9837V54.0459V54.0255ZM130.219 55.5566C129.443 54.5767 128.525 54.0663 127.463 54.0051V50.9429C129.545 51.0041 131.321 51.8207 132.832 53.3722C133.587 54.1684 134.159 55.0463 134.547 56.0057L131.26 57.6389C131.076 56.8632 130.729 56.1691 130.239 55.5566H130.219ZM132.812 65.172C131.321 66.744 129.525 67.5605 127.443 67.6218V64.6208C128.525 64.5596 129.443 64.0492 130.199 63.0489C130.586 62.5589 130.872 62.0281 131.076 61.4565L134.282 63.1101C133.914 63.845 133.424 64.5392 132.812 65.172Z" fill="#2F5E87"/>
<path d="M139.284 67.6218H135.507V50.9429H139.284V67.6218ZM147.735 50.9837V54.0459H139.937V50.9837H147.735ZM147.102 57.2919V60.3541H139.937V57.2919H147.102ZM147.756 64.5391V67.6014H139.957V64.5391H147.756Z" fill="#2F5E87"/>
<path d="M152.676 67.6219H148.899V50.9429H152.676V67.6219ZM155.943 50.9021C158.188 50.9021 159.801 51.535 160.801 52.8007C161.516 53.8827 161.863 55.0055 161.863 56.1895V56.4141C161.863 57.7615 161.495 58.966 160.74 59.9867C159.74 61.3545 157.739 61.9874 154.758 61.8853H153.268V58.7618H156.29C157.474 58.3331 158.066 57.5165 158.066 56.3325V56.0262C157.8 54.7197 157.086 54.046 155.922 54.0052H153.248V50.9225H155.922L155.943 50.9021Z" fill="#2F5E87"/>
<path d="M47.3254 27.4731V23.7793C47.3254 23.7793 45.8145 24.2079 42.568 23.9426C42.568 23.9426 35.7485 23.2079 31.5833 29.0036C31.5833 29.0036 26.4584 26.8608 20.5985 29.4526L18.7609 24.6364C18.7609 24.6364 17.1888 20.8202 18.7609 14.8816C18.7609 14.8816 19.3122 12.5756 20.9048 14.0245C20.9048 14.0245 23.3958 16.3714 26.9893 13.5347C26.9893 13.5347 28.1531 12.596 30.3582 11.5756C30.3582 11.5756 35.7485 9.49401 33.1963 5.26965L30.0111 1.53507C30.0111 1.53507 27.9081 -0.770989 24.2737 0.269796L16.0045 3.00441C16.0045 3.00441 13.2277 3.96357 10.1651 9.00423C10.1651 9.00423 3.40678 16.4326 0.160355 41.5339C0.160355 41.5339 -0.615519 46.3297 6.81655 49.3092C6.81655 49.3092 20.4352 56.5538 35.6056 51.8805C36.0139 51.7581 36.4223 51.5744 36.7898 51.3499C37.9945 50.6356 41.4451 49.003 43.4868 52.7172L45.5899 56.3293H46.9783V53.2274L44.7119 50.6356L46.9783 51.7581V50.4928C46.9783 50.4928 42.8335 45.8807 42.323 43.1869L46.9783 47.248V43.2685C46.9783 43.2685 40.8121 37.2075 35.8302 31.1056C35.8302 31.1056 36.6673 29.1465 41.0367 27.7996C41.0367 27.7996 37.9536 27.2486 35.3402 28.7996C35.3402 28.7996 38.7091 24.7793 47.305 27.4118L47.3254 27.4731ZM38.2599 38.187C35.5443 34.1667 32.2979 33.6974 32.2979 33.6974C36.4019 37.0034 36.3815 39.9625 36.3815 39.9625C30.0928 41.1665 19.2918 38.534 19.2918 38.534C23.212 42.6359 31.4199 43.7583 31.4199 43.7583C29.6844 44.6766 26.9485 44.8195 26.9485 44.8195C28.5615 45.3705 31.7262 46.2072 31.7262 46.2072C29.174 46.7174 16.5558 45.7174 16.5558 45.7174C18.4955 46.7786 25.7846 48.4316 25.7846 48.4316C22.1503 48.8806 15.5553 47.248 15.5553 47.248C6.83696 44.8399 12.7581 40.2686 12.7581 40.2686C5.87733 42.2277 6.26526 39.4319 6.26526 39.4319C5.26479 34.9014 9.83838 18.0856 9.83838 18.0856C8.32746 20.5345 6.26526 27.3098 6.26526 27.3098C8.77665 11.7797 15.2695 6.12677 15.2695 6.12677C17.4338 4.88191 23.7633 3.00441 23.7633 3.00441C26.6626 1.80036 28.1327 3.41256 28.1327 3.41256L31.1545 6.45329C31.9304 7.47367 31.1545 7.94304 31.1545 7.94304C30.3991 8.51445 29.909 7.77978 29.909 7.77978L27.4181 4.82068C27.4181 4.82068 28.9698 7.96345 29.1127 8.14711C29.7253 9.35116 28.9086 9.59605 28.8473 9.61646C28.0102 10.1675 27.561 9.14708 27.561 9.14708L26.0909 6.2288L26.2338 10.6572C22.9874 13.5959 22.1707 12.0654 22.1707 12.0654C22.232 11.5144 23.5999 10.6572 23.5999 10.6572L24.0491 10.3307L23.6204 10.2491L23.5795 8.41241L23.2528 8.88179L22.8853 8.73893L22.6199 8.16752V8.67771C20.9661 13.9429 17.3725 8.77975 17.3725 8.77975C18.2301 11.3307 15.2899 10.1471 15.2899 10.1471C16.8621 12.9837 16.1475 14.9836 16.1475 14.9836C14.6978 19.3917 14.6978 28.371 14.6978 28.371C15.2899 27.1874 15.6983 23.3916 15.6983 23.3916C18.4138 29.0036 16.8417 32.677 16.8417 32.677C16.8212 30.6975 16.1475 29.8199 16.1475 29.8199C15.7799 36.7585 8.06203 39.4115 8.06203 39.4115C12.9623 39.9421 15.3716 37.5136 15.3716 37.5136C15.1266 38.7789 15.3308 39.187 15.3308 39.187C19.8635 33.1872 25.1109 31.9423 25.1109 31.9423C22.5178 31.6566 20.2718 32.1464 20.2718 32.1464C33.4617 27.1465 38.0966 37.9625 38.2191 38.2278L38.2599 38.187Z" fill="#2F5E87"/>
</svg>
