<svg width="24" height="24" viewBox="0 0 24 24" fill="none" xmlns="http://www.w3.org/2000/svg">
<path fill-rule="evenodd" clip-rule="evenodd" d="M10 4C13.3137 4 16 6.68629 16 10C16 13.3137 13.3137 16 10 16C6.68629 16 4 13.3137 4 10C4 6.68629 6.68629 4 10 4ZM16.3198 14.9057C17.3729 13.551 18 11.8488 18 10C18 5.58172 14.4183 2 10 2C5.58172 2 2 5.58172 2 10C2 14.4183 5.58172 18 10 18C11.8488 18 13.551 17.3729 14.9057 16.3198L20.293 21.707L20.3691 21.7754C20.7619 22.0957 21.3409 22.0731 21.707 21.707C22.0731 21.3409 22.0957 20.7619 21.7754 20.3691L21.707 20.293L16.3198 14.9057Z" fill="#64748B"/>
</svg>
