<svg width="22" height="21" viewBox="0 0 22 21" fill="none" xmlns="http://www.w3.org/2000/svg">
<path d="M4.47967 9.45581C3.75609 9.45581 3.16406 10.0183 3.16406 10.7058C3.16406 11.3933 3.75609 11.9558 4.47967 11.9558C5.20326 11.9558 5.79528 11.3933 5.79528 10.7058C5.79528 10.0183 5.20326 9.45581 4.47967 9.45581Z" fill="#2C3A4D" stroke="#2C3A4D" stroke-width="1.5"/>
<path d="M16.7585 9.45581C16.0349 9.45581 15.4429 10.0183 15.4429 10.7058C15.4429 11.3933 16.0349 11.9558 16.7585 11.9558C17.4821 11.9558 18.0741 11.3933 18.0741 10.7058C18.0741 10.0183 17.4821 9.45581 16.7585 9.45581Z" fill="#2C3A4D" stroke="#2C3A4D" stroke-width="1.5"/>
<path d="M10.6188 9.45581C9.89525 9.45581 9.30322 10.0183 9.30322 10.7058C9.30322 11.3933 9.89525 11.9558 10.6188 11.9558C11.3424 11.9558 11.9344 11.3933 11.9344 10.7058C11.9344 10.0183 11.3424 9.45581 10.6188 9.45581Z" fill="#2C3A4D" stroke="#2C3A4D" stroke-width="1.5"/>
</svg>
