<svg width="71" height="70" viewBox="0 0 71 70" fill="none" xmlns="http://www.w3.org/2000/svg">
<rect x="0.5" width="70" height="70" rx="35" fill="#FFEDED"/>
<path d="M51.0434 40.1989L39.0802 20.9498C38.1299 19.664 36.6764 18.9373 35.1111 18.9373C33.4899 18.9373 32.0365 19.664 31.142 20.9498L19.1788 40.1989C18.0608 41.7083 17.8931 43.6649 18.7316 45.342C19.5701 47.0191 21.2472 48.0812 23.1479 48.0812H47.0743C48.975 48.0812 50.6521 47.0191 51.4906 45.342C52.3292 43.7208 52.1615 41.7083 51.0434 40.1989ZM49.2545 44.2239C48.8073 45.0625 48.0247 45.5656 47.0743 45.5656H23.1479C22.1976 45.5656 21.4149 45.0625 20.9677 44.2239C20.5764 43.3854 20.6323 42.4351 21.1913 41.7083L33.1545 22.4591C33.6017 21.8442 34.3285 21.4529 35.1111 21.4529C35.8938 21.4529 36.6205 21.7883 37.0677 22.4591L49.0309 41.7083C49.5899 42.4351 49.6458 43.3854 49.2545 44.2239Z" fill="#FE4F4F"/>
<path d="M35.111 29.3352C34.4402 29.3352 33.8252 29.8942 33.8252 30.621V36.7144C33.8252 37.3852 34.3843 38.0001 35.111 38.0001C35.8377 38.0001 36.3968 37.4411 36.3968 36.7144V30.5651C36.3968 29.8942 35.7818 29.3352 35.111 29.3352Z" fill="#FE4F4F"/>
<path d="M35.111 39.4722C34.4402 39.4722 33.8252 40.0312 33.8252 40.7579V41.0374C33.8252 41.7083 34.3843 42.3232 35.111 42.3232C35.8377 42.3232 36.3968 41.7642 36.3968 41.0374V40.702C36.3968 40.0312 35.7818 39.4722 35.111 39.4722Z" fill="#FE4F4F"/>
</svg>
